<svg width="173" height="41" viewBox="0 0 173 41" fill="none" xmlns="http://www.w3.org/2000/svg">
<g clip-path="url(#clip0_1105_17360)">
<path d="M8.69372 30.7323C8.69372 30.7323 13.4057 37.5232 14.1091 37.518C14.8727 37.5123 15.7481 36.0346 16.8174 34.5205C18.1371 32.6535 19.584 30.6239 19.584 30.6239C19.584 30.6239 26.846 32.4111 26.9637 35.0528C26.9033 36.0912 25.6699 38.2988 22.9588 39.2986C19.5084 40.5712 14.3829 40.6945 14.3829 40.6945C14.3829 40.6945 10.2919 40.7799 6.67784 39.7039C3.90677 38.8789 1.42126 37.0948 1.48619 35.5818C1.63328 32.149 8.69372 30.7323 8.69372 30.7323Z" fill="url(#paint0_linear_1105_17360)"/>
<path d="M14.0734 0C21.8336 0 28.1468 6.08816 28.1468 13.5713C28.1468 21.0545 21.8336 27.1426 14.0734 27.1426C6.31326 27.1426 0 21.0545 0 13.5713C0 6.08816 6.31326 0 14.0734 0ZM14.0734 25.4594C15.7288 25.4633 17.3691 25.1448 18.903 24.5216C19.6378 24.2225 20.3426 23.8544 21.008 23.4222C21.6632 22.996 22.2766 22.5086 22.84 21.9666C23.3986 21.4294 23.9043 20.8396 24.3502 20.2055C24.795 19.5722 25.1762 18.8963 25.4882 18.1879C26.1269 16.7326 26.4568 15.1602 26.4568 13.5706C26.4568 11.9809 26.1269 10.4086 25.4882 8.95328C25.1762 8.24482 24.795 7.56899 24.3502 6.93568C23.9042 6.30206 23.3985 5.7128 22.84 5.17604C22.2764 4.63422 21.6627 4.14706 21.0074 3.72107C20.3422 3.2887 19.6377 2.92038 18.9032 2.62105C15.8045 1.3707 12.3426 1.3707 9.24381 2.62105C8.50905 2.92013 7.80424 3.28824 7.13882 3.72043C6.48342 4.14662 5.8698 4.634 5.30616 5.17604C4.7476 5.71327 4.24189 6.30302 3.79603 6.93715C3.35122 7.57027 2.97003 8.24588 2.65802 8.95412C2.01927 10.4094 1.68944 11.9818 1.68944 13.5714C1.68944 15.1611 2.01927 16.7334 2.65802 18.1887C2.96999 18.8972 3.35118 19.573 3.79603 20.2063C4.24189 20.8405 4.7476 21.4302 5.30616 21.9674C5.86982 22.5093 6.48345 22.9964 7.13882 23.4224C7.80424 23.8546 8.50905 24.2227 9.24381 24.5218C10.7777 25.145 12.4181 25.4634 14.0734 25.4594Z" fill="#063EEA"/>
<path d="M3.04653 21.8408L13.8257 35.4571C13.8257 35.4571 14.023 35.7378 14.0883 35.7307C14.1537 35.7235 14.3529 35.4571 14.3529 35.4571L25.1165 21.8408C25.1165 21.8408 19.5987 27.008 14.0812 27.008C8.56365 27.008 3.04653 21.8408 3.04653 21.8408Z" fill="#063EEA"/>
<path d="M3.11839 21.7631C4.18719 22.7189 5.3368 23.5799 6.55427 24.3366C8.42959 25.5069 11.2578 26.9021 14.0818 26.9021C16.9058 26.9021 19.7368 25.5059 21.6129 24.3352C22.8293 23.5789 23.9777 22.7183 25.0455 21.7631L25.1997 21.9054L14.4371 35.5213C14.4296 35.5314 14.3817 35.5949 14.3258 35.6602C14.2064 35.7997 14.1507 35.8308 14.0997 35.8359C14.0955 35.8359 14.0913 35.8359 14.0869 35.8359C14.0505 35.8359 13.9652 35.8359 13.7423 35.5202L2.96437 21.9068L3.11839 21.7631ZM14.0867 35.608C14.1529 35.5409 14.2142 35.469 14.2699 35.393L14.2718 35.3906L24.3628 22.6258C23.5227 23.3086 22.6416 23.9392 21.7243 24.5138C20.6017 25.2252 19.4113 25.8233 18.1707 26.2993C15.5526 27.3847 12.6112 27.3847 9.99309 26.2993C8.75251 25.8233 7.56217 25.2252 6.43954 24.5138C5.52336 23.9398 4.64319 23.3101 3.80401 22.6281L13.9118 35.3965C13.9641 35.472 14.0224 35.543 14.0862 35.609L14.0867 35.608Z" fill="#063EEA"/>
<path d="M18.8371 10.3236H16.513V9.15974C16.513 8.51964 15.9901 7.99593 15.3509 7.99593H13.0268C12.3877 7.99593 11.8647 8.51964 11.8647 9.15974V10.3236H9.54061C8.90148 10.3236 8.37855 10.8473 8.37855 11.4874V18.4703C8.37855 19.1104 8.90148 19.6341 9.54061 19.6341H18.8371C19.4763 19.6341 19.9992 19.1104 19.9992 18.4703V11.4874C19.9992 10.8473 19.4763 10.3236 18.8371 10.3236ZM13.0268 9.15974H15.3509V10.3236H13.0268V9.15974ZM16.513 15.5607H14.7699V17.3065H13.6078V15.5607H11.8647V14.3969H13.6078V12.6512H14.7699V14.3969H16.513V15.5607Z" fill="#063EEA"/>
</g>
<path d="M44.116 9.96742C45.905 9.96742 47.4683 10.3125 48.806 11.0026C50.1437 11.6927 51.1752 12.6651 51.9004 13.9198C52.6418 15.1588 53.0125 16.5939 53.0125 18.2251C53.0125 19.8405 52.6418 21.2756 51.9004 22.5303C51.1752 23.7851 50.1356 24.7575 48.7818 25.4476C47.4441 26.1377 45.8889 26.4827 44.116 26.4827H37.7579V9.96742H44.116ZM43.8501 23.0009C45.4134 23.0009 46.6302 22.5852 47.5005 21.754C48.3708 20.9227 48.806 19.7464 48.806 18.2251C48.806 16.7037 48.3708 15.5196 47.5005 14.6726C46.6302 13.8257 45.4134 13.4022 43.8501 13.4022H41.8919V23.0009H43.8501Z" fill="#111521"/>
<path d="M57.4018 11.9907C56.6765 11.9907 56.0802 11.7868 55.6128 11.379C55.1616 10.9555 54.9359 10.4379 54.9359 9.82627C54.9359 9.1989 55.1616 8.68133 55.6128 8.27354C56.0802 7.85008 56.6765 7.63834 57.4018 7.63834C58.1109 7.63834 58.6911 7.85008 59.1424 8.27354C59.6098 8.68133 59.8435 9.1989 59.8435 9.82627C59.8435 10.4379 59.6098 10.9555 59.1424 11.379C58.6911 11.7868 58.1109 11.9907 57.4018 11.9907ZM59.4567 13.3552V26.4827H55.3227V13.3552H59.4567Z" fill="#111521"/>
<path d="M67.5777 13.167C68.5285 13.167 69.3586 13.3552 70.0677 13.7316C70.793 14.108 71.349 14.6021 71.7358 15.2137V13.3552H75.8697V26.4592C75.8697 27.6669 75.6199 28.7569 75.1203 29.7293C74.6368 30.7174 73.8874 31.5016 72.872 32.0819C71.8728 32.6622 70.6237 32.9524 69.1249 32.9524C67.1264 32.9524 65.5067 32.4897 64.2657 31.5643C63.0247 30.6547 62.3155 29.4156 62.1382 27.8472H66.2238C66.3528 28.3491 66.659 28.7412 67.1425 29.0235C67.626 29.3215 68.2223 29.4705 68.9315 29.4705C69.7857 29.4705 70.4626 29.2274 70.9622 28.7412C71.4779 28.2707 71.7358 27.51 71.7358 26.4592V24.6006C71.3329 25.2123 70.7768 25.7142 70.0677 26.1063C69.3586 26.4827 68.5285 26.6709 67.5777 26.6709C66.4656 26.6709 65.4583 26.3965 64.5558 25.8475C63.6532 25.2829 62.936 24.4908 62.4042 23.4714C61.8884 22.4362 61.6306 21.2442 61.6306 19.8954C61.6306 18.5466 61.8884 17.3624 62.4042 16.343C62.936 15.3235 63.6532 14.5393 64.5558 13.9904C65.4583 13.4414 66.4656 13.167 67.5777 13.167ZM71.7358 19.9189C71.7358 18.9152 71.4457 18.1231 70.8655 17.5428C70.3014 16.9625 69.6084 16.6723 68.7864 16.6723C67.9645 16.6723 67.2634 16.9625 66.6832 17.5428C66.1191 18.1074 65.837 18.8916 65.837 19.8954C65.837 20.8992 66.1191 21.6991 66.6832 22.2951C67.2634 22.8754 67.9645 23.1655 68.7864 23.1655C69.6084 23.1655 70.3014 22.8754 70.8655 22.2951C71.4457 21.7148 71.7358 20.9227 71.7358 19.9189Z" fill="#111521"/>
<path d="M80.9395 11.9907C80.2143 11.9907 79.618 11.7868 79.1506 11.379C78.6993 10.9555 78.4737 10.4379 78.4737 9.82627C78.4737 9.1989 78.6993 8.68133 79.1506 8.27354C79.618 7.85008 80.2143 7.63834 80.9395 7.63834C81.6487 7.63834 82.2289 7.85008 82.6802 8.27354C83.1475 8.68133 83.3812 9.1989 83.3812 9.82627C83.3812 10.4379 83.1475 10.9555 82.6802 11.379C82.2289 11.7868 81.6487 11.9907 80.9395 11.9907ZM82.9944 13.3552V26.4827H78.8605V13.3552H82.9944Z" fill="#111521"/>
<path d="M90.1242 15.2137C90.5272 14.6021 91.0832 14.108 91.7923 13.7316C92.5015 13.3552 93.3315 13.167 94.2824 13.167C95.3944 13.167 96.4017 13.4414 97.3043 13.9904C98.2068 14.5393 98.9159 15.3235 99.4317 16.343C99.9635 17.3624 100.229 18.5466 100.229 19.8954C100.229 21.2442 99.9635 22.4362 99.4317 23.4714C98.9159 24.4908 98.2068 25.2829 97.3043 25.8475C96.4017 26.3965 95.3944 26.6709 94.2824 26.6709C93.3476 26.6709 92.5176 26.4827 91.7923 26.1063C91.0832 25.7299 90.5272 25.2437 90.1242 24.6477V32.7407H85.9903V13.3552H90.1242V15.2137ZM96.023 19.8954C96.023 18.8916 95.7329 18.1074 95.1527 17.5428C94.5886 16.9625 93.8875 16.6723 93.0494 16.6723C92.2275 16.6723 91.5264 16.9625 90.9462 17.5428C90.3821 18.1231 90.1001 18.9152 90.1001 19.9189C90.1001 20.9227 90.3821 21.7148 90.9462 22.2951C91.5264 22.8754 92.2275 23.1655 93.0494 23.1655C93.8714 23.1655 94.5725 22.8754 95.1527 22.2951C95.7329 21.6991 96.023 20.8992 96.023 19.8954Z" fill="#111521"/>
<path d="M110.69 13.214C112.238 13.214 113.479 13.7159 114.413 14.7197C115.348 15.7078 115.815 17.0723 115.815 18.8132V26.4827H111.706V19.3543C111.706 18.476 111.472 17.7938 111.005 17.3076C110.537 16.8213 109.909 16.5782 109.119 16.5782C108.329 16.5782 107.701 16.8213 107.233 17.3076C106.766 17.7938 106.532 18.476 106.532 19.3543V26.4827H102.398V9.07343H106.532V15.1196C106.951 14.5393 107.523 14.0766 108.249 13.7316C108.974 13.3865 109.788 13.214 110.69 13.214Z" fill="#111521"/>
<path d="M117.866 19.8954C117.866 18.5466 118.124 17.3624 118.64 16.343C119.172 15.3235 119.889 14.5393 120.791 13.9904C121.694 13.4414 122.701 13.167 123.813 13.167C124.764 13.167 125.594 13.3552 126.303 13.7316C127.029 14.108 127.585 14.6021 127.971 15.2137V13.3552H132.105V26.4827H127.971V24.6242C127.569 25.2358 127.004 25.7299 126.279 26.1063C125.57 26.4827 124.74 26.6709 123.789 26.6709C122.693 26.6709 121.694 26.3965 120.791 25.8475C119.889 25.2829 119.172 24.4908 118.64 23.4714C118.124 22.4362 117.866 21.2442 117.866 19.8954ZM127.971 19.9189C127.971 18.9152 127.681 18.1231 127.101 17.5428C126.537 16.9625 125.844 16.6723 125.022 16.6723C124.2 16.6723 123.499 16.9625 122.919 17.5428C122.355 18.1074 122.073 18.8916 122.073 19.8954C122.073 20.8992 122.355 21.6991 122.919 22.2951C123.499 22.8754 124.2 23.1655 125.022 23.1655C125.844 23.1655 126.537 22.8754 127.101 22.2951C127.681 21.7148 127.971 20.9227 127.971 19.9189Z" fill="#111521"/>
<path d="M139.23 15.5431C139.714 14.8216 140.318 14.257 141.043 13.8492C141.768 13.4258 142.574 13.214 143.461 13.214V17.4722H142.325C141.293 17.4722 140.519 17.6918 140.004 18.131C139.488 18.5544 139.23 19.3073 139.23 20.3895V26.4827H135.096V13.3552H139.23V15.5431Z" fill="#111521"/>
<path d="M162.649 13.214C164.326 13.214 165.655 13.7081 166.638 14.6962C167.638 15.6843 168.137 17.0566 168.137 18.8132V26.4827H164.027V19.3543C164.027 18.5074 163.794 17.8565 163.326 17.4017C162.875 16.9311 162.247 16.6959 161.441 16.6959C160.635 16.6959 159.998 16.9311 159.531 17.4017C159.08 17.8565 158.854 18.5074 158.854 19.3543V26.4827H154.744V19.3543C154.744 18.5074 154.51 17.8565 154.043 17.4017C153.592 16.9311 152.963 16.6959 152.157 16.6959C151.352 16.6959 150.715 16.9311 150.248 17.4017C149.796 17.8565 149.571 18.5074 149.571 19.3543V26.4827H145.437V13.3552H149.571V15.002C149.99 14.4531 150.538 14.0217 151.215 13.7081C151.891 13.3787 152.657 13.214 153.511 13.214C154.527 13.214 155.429 13.4258 156.219 13.8492C157.025 14.2727 157.653 14.8765 158.104 15.6607C158.572 14.9393 159.208 14.3511 160.014 13.8963C160.82 13.4414 161.699 13.214 162.649 13.214Z" fill="#111521"/>
<path d="M60.0565 9.84906C60.0565 11.1179 58.915 12.1465 57.5068 12.1465C56.0986 12.1465 54.9571 11.1179 54.9571 9.84906C54.9571 8.5802 56.0986 7.55159 57.5068 7.55159C58.915 7.55159 60.0565 8.5802 60.0565 9.84906Z" fill="#063EEA"/>
<path d="M166.767 10.7308H173V12.6979H166.767V10.7308Z" fill="#37CD6A"/>
<path d="M170.922 8.65437V14.7197H168.901V8.65437H170.922Z" fill="#37CD6A"/>
<defs>
<linearGradient id="paint0_linear_1105_17360" x1="14.2243" y1="30.6239" x2="15.0262" y2="39.5258" gradientUnits="userSpaceOnUse">
<stop stop-color="#40C87C"/>
<stop offset="1" stop-color="#05BF58"/>
</linearGradient>
<clipPath id="clip0_1105_17360">
<rect width="28.1468" height="40.504" fill="white"/>
</clipPath>
</defs>
</svg>
