<svg width="220" height="34" viewBox="0 0 220 34" fill="none" xmlns="http://www.w3.org/2000/svg">
<path d="M0.061877 4.89476C0.0669403 2.68563 1.8619 0.89888 4.07103 0.903943L215.07 1.38755C217.28 1.39261 219.066 3.18757 219.061 5.39671L219.006 29.3966C219.001 31.6058 217.206 33.3925 214.997 33.3875L3.99769 32.9039C1.78856 32.8988 0.0018063 31.1038 0.00686959 28.8947L0.061877 4.89476Z" fill="white"/>
<path d="M5.44099 17.0682C5.4427 16.3202 5.61657 15.6495 5.9626 15.0563C6.31596 14.4631 6.79002 14.0022 7.38477 13.6736C7.98688 13.3376 8.64359 13.1705 9.35493 13.1721C10.1689 13.174 10.8908 13.3773 11.5205 13.7821C12.1576 14.1795 12.6183 14.7453 12.9026 15.4792L11.3957 15.4758C11.1986 15.072 10.9243 14.7707 10.5727 14.5719C10.2212 14.3731 9.8144 14.2732 9.3524 14.2721C8.84641 14.2709 8.39515 14.3836 7.99863 14.61C7.60211 14.8364 7.28969 15.162 7.06138 15.5869C6.84041 16.0117 6.72928 16.5064 6.72798 17.0711C6.72669 17.6358 6.83555 18.131 7.05458 18.5569C7.28094 18.9827 7.59185 19.3134 7.98731 19.549C8.38278 19.7772 8.83352 19.8919 9.33952 19.8931C9.80152 19.8942 10.2087 19.7961 10.5612 19.5989C10.9137 19.4017 11.1893 19.1017 11.3883 18.6988L12.8953 18.7022C12.6076 19.4349 12.1443 19.9985 11.5054 20.3931C10.8738 20.7876 10.151 20.984 9.33703 20.9821C8.61836 20.9804 7.96241 20.8139 7.36916 20.4826C6.77594 20.1439 6.30401 19.6771 5.95337 19.0823C5.61007 18.4875 5.43927 17.8161 5.44099 17.0682ZM15.0117 14.0651C14.7844 14.0646 14.5939 13.9871 14.4402 13.8328C14.2866 13.6784 14.21 13.4876 14.2105 13.2602C14.2111 13.0329 14.2885 12.8424 14.4429 12.6888C14.5972 12.5351 14.7881 12.4586 15.0154 12.4591C15.2354 12.4596 15.4222 12.537 15.5759 12.6914C15.7295 12.8457 15.8061 13.0366 15.8055 13.2639C15.805 13.4912 15.7276 13.6817 15.5732 13.8354C15.4189 13.989 15.2317 14.0656 15.0117 14.0651ZM15.6259 14.8695L15.612 20.9305L14.358 20.9276L14.3719 14.8666L15.6259 14.8695ZM18.5242 15.7671C18.7375 15.489 19.0277 15.255 19.3948 15.0651C19.7619 14.8753 20.1765 14.7809 20.6385 14.782C21.1665 14.7832 21.6465 14.9163 22.0786 15.1813C22.518 15.439 22.8618 15.8027 23.1101 16.2726C23.3583 16.7425 23.4817 17.2818 23.4804 17.8905C23.479 18.4992 23.353 19.0452 23.1026 19.5286C22.8522 20.0047 22.5066 20.3779 22.066 20.6483C21.6328 20.9113 21.1521 21.0422 20.6241 21.041C20.1621 21.0399 19.7517 20.9473 19.3928 20.7631C19.0339 20.5716 18.7411 20.3363 18.5144 20.0571L18.5057 23.8191L17.2518 23.8162L17.2723 14.8733L18.5262 14.8761L18.5242 15.7671ZM22.2044 17.8876C22.2053 17.4696 22.1181 17.11 21.9428 16.809C21.7749 16.5006 21.5481 16.2691 21.2624 16.1144C20.9841 15.9524 20.6836 15.8711 20.361 15.8703C20.0456 15.8696 19.7448 15.9496 19.4584 16.1103C19.1794 16.271 18.9515 16.5051 18.7748 16.8127C18.6054 17.1203 18.5203 17.4831 18.5193 17.9011C18.5184 18.3191 18.6018 18.686 18.7698 19.0017C18.9451 19.3101 19.1719 19.5453 19.4502 19.7073C19.7358 19.8693 20.0363 19.9506 20.3516 19.9513C20.6743 19.9521 20.9751 19.8721 21.2542 19.7114C21.5406 19.5434 21.7684 19.3019 21.9378 18.987C22.1146 18.672 22.2034 18.3056 22.2044 17.8876ZM25.9793 15.7732C26.1633 15.4656 26.4059 15.2279 26.7069 15.0599C27.0153 14.8846 27.3785 14.7974 27.7965 14.7984L27.7936 16.0964L27.4746 16.0956C26.9832 16.0945 26.6089 16.2183 26.3517 16.4671C26.1018 16.7158 25.9761 17.1482 25.9747 17.7642L25.9674 20.9542L24.7134 20.9513L24.7273 14.8903L25.9813 14.8932L25.9793 15.7732ZM31.5639 21.066C30.9919 21.0647 30.4751 20.9352 30.0137 20.6775C29.5523 20.4124 29.1902 20.0449 28.9273 19.575C28.6644 19.0977 28.5336 18.5474 28.535 17.9241C28.5365 17.3081 28.6734 16.7621 28.9458 16.286C29.2182 15.81 29.5894 15.4442 30.0593 15.1886C30.5292 14.933 31.0539 14.8058 31.6332 14.8072C32.2125 14.8085 32.7366 14.938 33.2053 15.1958C33.6741 15.4535 34.0435 15.821 34.3138 16.2983C34.584 16.7756 34.7184 17.3223 34.717 17.9383C34.7156 18.5543 34.575 19.1003 34.2953 19.5763C34.0155 20.0523 33.6333 20.4218 33.1487 20.6847C32.6715 20.9402 32.1432 21.0674 31.5639 21.066ZM31.5663 19.977C31.889 19.9778 32.1899 19.9015 32.4689 19.7481C32.7552 19.5948 32.9868 19.3643 33.1635 19.0567C33.3402 18.7491 33.429 18.3753 33.43 17.9353C33.431 17.4953 33.3476 17.1248 33.1796 16.8237C33.0116 16.5153 32.7885 16.2838 32.5102 16.1292C32.2319 15.9746 31.9314 15.8969 31.6087 15.8961C31.286 15.8954 30.9852 15.9717 30.7062 16.1251C30.4345 16.2784 30.2176 16.5089 30.0556 16.8166C29.8936 17.1169 29.8121 17.487 29.811 17.927C29.8095 18.5797 29.9734 19.0861 30.3026 19.4461C30.6391 19.7989 31.0603 19.9759 31.5663 19.977ZM39.0218 14.8241C39.4985 14.8252 39.9236 14.9252 40.2971 15.124C40.678 15.3229 40.9743 15.6169 41.1861 16.0061C41.3979 16.3952 41.5032 16.8648 41.5019 17.4148L41.4937 20.9898L40.2507 20.9869L40.2585 17.599C40.2597 17.0563 40.125 16.6416 39.8543 16.355C39.5837 16.0611 39.2137 15.9136 38.7443 15.9125C38.275 15.9114 37.9007 16.0572 37.6213 16.3499C37.3493 16.6353 37.2127 17.0493 37.2115 17.592L37.2037 20.98L35.9497 20.9771L35.9636 14.9161L37.2176 14.919L37.216 15.612C37.4219 15.3631 37.6827 15.1694 37.9984 15.0308C38.3213 14.8922 38.6625 14.8233 39.0218 14.8241ZM42.6823 17.9345C42.6837 17.3258 42.8096 16.7871 43.06 16.3184C43.3177 15.8496 43.6632 15.4874 44.0965 15.2317C44.5371 14.9688 45.0214 14.8379 45.5494 14.8391C46.026 14.8402 46.4401 14.9364 46.7917 15.1279C47.1506 15.3121 47.4361 15.5437 47.6481 15.8229L47.6501 14.9429L48.9151 14.9458L48.9012 21.0068L47.6362 21.0039L47.6383 20.1019C47.425 20.3874 47.1348 20.6251 46.7677 20.8149C46.4006 21.0047 45.9824 21.0991 45.513 21.098C44.9924 21.0968 44.516 20.9637 44.0839 20.6987C43.6519 20.4264 43.3081 20.0516 43.0525 19.5744C42.8043 19.0898 42.6809 18.5432 42.6823 17.9345ZM47.6432 17.9679C47.6442 17.5499 47.557 17.1867 47.3817 16.8783C47.2137 16.5699 46.9906 16.3347 46.7123 16.1727C46.434 16.0108 46.1335 15.9294 45.8109 15.9287C45.4882 15.9279 45.1874 16.0079 44.9083 16.1686C44.6293 16.322 44.4014 16.5524 44.2247 16.86C44.0554 17.1603 43.9702 17.5195 43.9693 17.9375C43.9683 18.3555 44.0518 18.7223 44.2197 19.038C44.395 19.3538 44.6218 19.5963 44.9001 19.7656C45.1857 19.9276 45.4862 20.0089 45.8015 20.0097C46.1242 20.0104 46.425 19.9304 46.7041 19.7697C46.9831 19.609 47.2073 19.3749 47.3767 19.0673C47.5534 18.7523 47.6422 18.3859 47.6432 17.9679ZM52.0229 15.9759L52.0152 19.3309C52.0146 19.5582 52.0656 19.7234 52.168 19.8263C52.2778 19.9218 52.461 19.9699 52.7177 19.9705L53.4877 19.9723L53.4853 21.0173L52.4953 21.015C51.9306 21.0137 51.4983 20.8807 51.1982 20.616C50.8982 20.3513 50.7488 19.922 50.7502 19.328L50.7579 15.973L50.0429 15.9714L50.0452 14.9484L50.7602 14.95L50.7637 13.443L52.0287 13.4459L52.0252 14.9529L53.4992 14.9563L53.4968 15.9793L52.0229 15.9759ZM58.0304 19.3227C58.7358 18.7156 59.2906 18.2182 59.6948 17.8305C60.1064 17.4354 60.4483 17.0256 60.7206 16.6008C60.9929 16.1761 61.1296 15.7511 61.1306 15.3258C61.1316 14.8858 61.026 14.5409 60.8139 14.2911C60.6092 14.0413 60.2831 13.9158 59.8358 13.9148C59.4031 13.9138 59.0655 14.0524 58.8228 14.3305C58.5875 14.6013 58.462 14.9677 58.4463 15.4296L57.2363 15.4269C57.2602 14.5909 57.511 13.9535 57.9887 13.5146C58.4737 13.0684 59.0866 12.8461 59.8272 12.8478C60.6266 12.8496 61.2494 13.0711 61.6957 13.5121C62.1494 13.9531 62.3754 14.5403 62.3737 15.2736C62.3725 15.8016 62.2356 16.311 61.9632 16.8017C61.6981 17.2851 61.3781 17.7207 61.0032 18.1085C60.6356 18.489 60.1653 18.9316 59.5921 19.4363L59.0961 19.8751L62.5831 19.8831L62.5807 20.9281L57.2347 20.9159L57.2368 20.0029L58.0304 19.3227ZM68.868 14.1115L65.183 14.1031L65.178 16.2921C65.3325 16.0871 65.5602 15.9153 65.8612 15.7766C66.1695 15.638 66.496 15.5691 66.8407 15.5699C67.4566 15.5713 67.955 15.7044 68.3357 15.9693C68.7238 16.2342 68.998 16.5685 69.1584 16.9722C69.3262 17.3759 69.4095 17.8014 69.4085 18.2488C69.4073 18.7914 69.2998 19.2752 69.0862 19.7C68.8799 20.1176 68.5675 20.4468 68.1489 20.6879C67.7377 20.9289 67.2314 21.0488 66.6301 21.0474C65.8308 21.0456 65.1896 20.8461 64.7065 20.449C64.2234 20.0519 63.9349 19.5269 63.8411 18.874L65.0621 18.8768C65.1419 19.2217 65.321 19.4971 65.5992 19.703C65.8774 19.9017 66.2255 20.0015 66.6435 20.0024C67.1642 20.0036 67.5532 19.8469 67.8106 19.5321C68.0753 19.2174 68.2083 18.7997 68.2094 18.279C68.2107 17.751 68.0796 17.3474 67.8162 17.0681C67.5529 16.7815 67.1645 16.6376 66.6512 16.6364C66.2919 16.6356 65.9873 16.7266 65.7376 16.9093C65.4952 17.0848 65.3186 17.3264 65.2079 17.6341L64.0199 17.6314L64.0305 13.0004L68.8705 13.0115L68.868 14.1115ZM70.7169 16.9428C70.7198 15.6741 70.9347 14.6846 71.3617 13.9742C71.796 13.2566 72.5375 12.8989 73.5862 12.9013C74.6348 12.9037 75.371 13.2648 75.7947 13.9844C76.2257 14.6967 76.4398 15.6872 76.4369 16.9559C76.4339 18.2392 76.2153 19.2434 75.781 19.9684C75.354 20.6861 74.6162 21.0437 73.5675 21.0413C72.5189 21.0389 71.779 20.6779 71.348 19.9582C70.9243 19.2312 70.714 18.2261 70.7169 16.9428ZM75.2049 16.953C75.2063 16.359 75.1671 15.8566 75.0873 15.4458C75.015 15.0349 74.8617 14.7009 74.6276 14.4437C74.3936 14.1792 74.0456 14.0464 73.5836 14.0453C73.1216 14.0443 72.7729 14.1755 72.5376 14.4389C72.3024 14.6951 72.144 15.0284 72.0624 15.4388C71.9881 15.8493 71.9503 16.3516 71.9489 16.9456C71.9475 17.5616 71.983 18.0787 72.0553 18.4968C72.1277 18.915 72.2809 19.2527 72.515 19.5099C72.7564 19.7671 73.1081 19.8962 73.5701 19.8973C74.0321 19.8984 74.3808 19.7708 74.616 19.5147C74.8586 19.2586 75.017 18.9216 75.0913 18.5038C75.1656 18.086 75.2035 17.569 75.2049 16.953ZM85.2704 14.9301C85.7471 14.9312 86.1722 15.0312 86.5457 15.23C86.9266 15.4289 87.223 15.7229 87.4347 16.1121C87.6538 16.5012 87.7628 16.9708 87.7615 17.5208L87.7533 21.0958L86.5103 21.093L86.5181 17.705C86.5193 17.1623 86.3846 16.7477 86.1139 16.461C85.8433 16.1671 85.4733 16.0196 85.0039 16.0185C84.5346 16.0174 84.1603 16.1632 83.8809 16.4559C83.6089 16.7413 83.4723 17.1553 83.4711 17.698L83.4633 21.086L82.2203 21.0831L82.2281 17.6951C82.2293 17.1525 82.0946 16.7378 81.8239 16.4512C81.5533 16.1573 81.1833 16.0097 80.7139 16.0087C80.2446 16.0076 79.8703 16.1534 79.5909 16.4461C79.319 16.7315 79.1823 17.1455 79.1811 17.6882L79.1733 21.0762L77.9193 21.0733L77.9332 15.0123L79.1872 15.0152L79.1856 15.7082C79.3915 15.4593 79.6523 15.2656 79.968 15.127C80.2836 14.9883 80.6211 14.9195 80.9804 14.9203C81.4644 14.9214 81.8969 15.025 82.2777 15.2313C82.6586 15.4375 82.9512 15.7351 83.1557 16.1243C83.3399 15.758 83.6265 15.469 84.0157 15.2572C84.4048 15.0381 84.8231 14.9291 85.2704 14.9301ZM91.8051 14.9451C92.2744 14.9462 92.6885 15.0424 93.0474 15.2339C93.4137 15.4181 93.6992 15.6498 93.9039 15.9289L93.9059 15.0489L95.1709 15.0518L95.1567 21.2118C95.1555 21.7691 95.037 22.2638 94.8013 22.696C94.5657 23.1354 94.2239 23.4793 93.776 23.7276C93.3354 23.976 92.8071 24.0994 92.1911 24.098C91.3698 24.0961 90.6882 23.9002 90.1465 23.5103C89.6047 23.1277 89.2979 22.6064 89.226 21.9462L90.469 21.949C90.5637 22.2646 90.7647 22.5181 91.0723 22.7094C91.3872 22.9082 91.761 23.008 92.1936 23.009C92.6996 23.0102 93.107 22.8571 93.4157 22.5498C93.7317 22.2425 93.8904 21.7956 93.8918 21.2089L93.8941 20.1969C93.6807 20.4824 93.3905 20.7237 93.0234 20.9209C92.6636 21.1107 92.2528 21.2051 91.7908 21.2041C91.2628 21.2029 90.7791 21.0698 90.3397 20.8047C89.9076 20.5324 89.5638 20.1576 89.3082 19.6804C89.06 19.1958 88.9366 18.6492 88.938 18.0405C88.9394 17.4319 89.0653 16.8931 89.3157 16.4244C89.5734 15.9556 89.9189 15.5934 90.3522 15.3378C90.7928 15.0748 91.2771 14.9439 91.8051 14.9451ZM93.8989 18.0739C93.8999 17.6559 93.8127 17.2927 93.6374 16.9843C93.4695 16.6759 93.2463 16.4407 92.968 16.2788C92.6898 16.1168 92.3893 16.0354 92.0666 16.0347C91.7439 16.034 91.4431 16.1139 91.1641 16.2746C90.885 16.428 90.6572 16.6585 90.4805 16.9661C90.3111 17.2663 90.226 17.6255 90.225 18.0435C90.224 18.4615 90.3075 18.8283 90.4755 19.1441C90.6508 19.4598 90.8775 19.7023 91.1558 19.8716C91.4414 20.0336 91.7419 20.115 92.0573 20.1157C92.3799 20.1164 92.6808 20.0364 92.9598 19.8757C93.2388 19.7151 93.463 19.4809 93.6324 19.1733C93.8091 18.8584 93.898 18.4919 93.8989 18.0739ZM99.2523 17.2832C99.254 16.5352 99.4278 15.8646 99.7739 15.2714C100.127 14.6782 100.601 14.2172 101.196 13.8886C101.798 13.5527 102.455 13.3855 103.166 13.3871C103.98 13.389 104.702 13.5923 105.332 13.9971C105.969 14.3946 106.43 14.9603 106.714 15.6943L105.207 15.6908C105.01 15.287 104.736 14.9857 104.384 14.7869C104.032 14.5881 103.626 14.4882 103.164 14.4871C102.658 14.486 102.206 14.5986 101.81 14.825C101.413 15.0514 101.101 15.3771 100.873 15.8019C100.652 16.2267 100.541 16.7214 100.539 17.2861C100.538 17.8508 100.647 18.346 100.866 18.7719C101.092 19.1977 101.403 19.5284 101.799 19.764C102.194 19.9922 102.645 20.1069 103.151 20.1081C103.613 20.1092 104.02 20.0111 104.372 19.8139C104.725 19.6167 105.001 19.3167 105.2 18.9138L106.707 18.9173C106.419 19.6499 105.956 20.2135 105.317 20.6081C104.685 21.0026 103.962 21.199 103.148 21.1971C102.43 21.1955 101.774 21.029 101.18 20.6976C100.587 20.3589 100.115 19.8921 99.7646 19.2973C99.4213 18.7026 99.2505 18.0312 99.2523 17.2832ZM110.798 21.2476C110.226 21.2463 109.709 21.1168 109.248 20.8591C108.787 20.594 108.424 20.2265 108.161 19.7566C107.899 19.2793 107.768 18.729 107.769 18.1057C107.771 17.4897 107.908 16.9437 108.18 16.4676C108.452 15.9916 108.824 15.6258 109.293 15.3702C109.763 15.1146 110.288 14.9875 110.867 14.9888C111.447 14.9901 111.971 15.1196 112.439 15.3774C112.908 15.6351 113.278 16.0026 113.548 16.4799C113.818 16.9572 113.953 17.5039 113.951 18.1199C113.95 18.7359 113.809 19.2819 113.529 19.7579C113.25 20.2339 112.868 20.6034 112.383 20.8663C111.906 21.1218 111.377 21.249 110.798 21.2476ZM110.801 20.1586C111.123 20.1594 111.424 20.0831 111.703 19.9297C111.989 19.7764 112.221 19.5459 112.398 19.2383C112.574 18.9307 112.663 18.5569 112.664 18.1169C112.665 17.6769 112.582 17.3064 112.414 17.0053C112.246 16.6969 112.023 16.4654 111.744 16.3108C111.466 16.1562 111.166 16.0785 110.843 16.0777C110.52 16.077 110.219 16.1533 109.94 16.3067C109.669 16.46 109.452 16.6905 109.29 16.9982C109.128 17.2985 109.046 17.6686 109.045 18.1086C109.044 18.7613 109.208 19.2677 109.537 19.6277C109.873 19.9805 110.295 20.1575 110.801 20.1586ZM122.535 15.0155C123.012 15.0166 123.437 15.1166 123.81 15.3154C124.191 15.5143 124.488 15.8083 124.699 16.1975C124.918 16.5867 125.027 17.0562 125.026 17.6062L125.018 21.1812L123.775 21.1784L123.783 17.7904C123.784 17.2477 123.649 16.8331 123.378 16.5465C123.108 16.2525 122.738 16.105 122.268 16.1039C121.799 16.1028 121.425 16.2486 121.145 16.5413C120.873 16.8267 120.737 17.2407 120.736 17.7834L120.728 21.1714L119.485 21.1685L119.493 17.7806C119.494 17.2379 119.359 16.8232 119.088 16.5366C118.818 16.2427 118.448 16.0952 117.978 16.0941C117.509 16.093 117.135 16.2388 116.855 16.5315C116.584 16.8169 116.447 17.2309 116.446 17.7736L116.438 21.1616L115.184 21.1587L115.198 15.0977L116.452 15.1006L116.45 15.7936C116.656 15.5447 116.917 15.351 117.233 15.2124C117.548 15.0738 117.886 15.0049 118.245 15.0057C118.729 15.0068 119.161 15.1105 119.542 15.3167C119.923 15.5229 120.216 15.8205 120.42 16.2097C120.604 15.8434 120.891 15.5544 121.28 15.3426C121.669 15.1235 122.088 15.0145 122.535 15.0155ZM127.879 16.0178C128.093 15.7396 128.383 15.5056 128.75 15.3158C129.117 15.1259 129.532 15.0316 129.994 15.0326C130.522 15.0338 131.002 15.1669 131.434 15.4319C131.873 15.6896 132.217 16.0534 132.465 16.5233C132.713 16.9932 132.837 17.5325 132.836 18.1411C132.834 18.7498 132.708 19.2959 132.458 19.7793C132.207 20.2554 131.862 20.6286 131.421 20.8989C130.988 21.1619 130.507 21.2928 129.979 21.2916C129.517 21.2905 129.107 21.1979 128.748 21.0138C128.389 20.8223 128.096 20.5869 127.87 20.3078L127.861 24.0698L126.607 24.0669L126.627 15.1239L127.881 15.1268L127.879 16.0178ZM131.56 18.1382C131.56 17.7202 131.473 17.3607 131.298 17.0596C131.13 16.7512 130.903 16.5197 130.618 16.3651C130.339 16.2031 130.039 16.1217 129.716 16.121C129.401 16.1203 129.1 16.2002 128.814 16.3609C128.535 16.5216 128.307 16.7558 128.13 17.0634C127.961 17.371 127.875 17.7338 127.874 18.1518C127.874 18.5698 127.957 18.9366 128.125 19.2523C128.3 19.5607 128.527 19.7959 128.805 19.9579C129.091 20.1199 129.391 20.2013 129.707 20.202C130.029 20.2027 130.33 20.1227 130.609 19.962C130.896 19.794 131.124 19.5526 131.293 19.2376C131.47 18.9227 131.559 18.5562 131.56 18.1382ZM135.334 16.0239C135.519 15.7163 135.761 15.4785 136.062 15.3105C136.371 15.1352 136.734 15.0481 137.152 15.049L137.149 16.347L136.83 16.3463C136.338 16.3452 135.964 16.469 135.707 16.7177C135.457 16.9665 135.331 17.3989 135.33 18.0149L135.323 21.2048L134.069 21.202L134.082 15.141L135.336 15.1439L135.334 16.0239ZM138.944 14.3491C138.717 14.3486 138.526 14.2712 138.373 14.1168C138.219 13.9625 138.142 13.7716 138.143 13.5443C138.143 13.317 138.221 13.1265 138.375 12.9728C138.53 12.8192 138.72 12.7426 138.948 12.7431C139.168 12.7436 139.355 12.8211 139.508 12.9754C139.662 13.1298 139.738 13.3206 139.738 13.5479C139.737 13.7753 139.66 13.9658 139.506 14.1194C139.351 14.2731 139.164 14.3496 138.944 14.3491ZM139.558 15.1535L139.544 21.2145L138.29 21.2116L138.304 15.1507L139.558 15.1535ZM148.542 15.0751C149.018 15.0762 149.444 15.1762 149.817 15.3751C150.198 15.5739 150.494 15.8679 150.706 16.2571C150.925 16.6463 151.034 17.1158 151.033 17.6658L151.025 21.2408L149.782 21.238L149.789 17.85C149.791 17.3073 149.656 16.8927 149.385 16.6061C149.115 16.3121 148.745 16.1646 148.275 16.1635C147.806 16.1624 147.432 16.3083 147.152 16.6009C146.88 16.8863 146.744 17.3003 146.742 17.843L146.735 21.231L145.492 21.2282L145.499 17.8402C145.501 17.2975 145.366 16.8829 145.095 16.5962C144.825 16.3023 144.455 16.1548 143.985 16.1537C143.516 16.1526 143.142 16.2984 142.862 16.5911C142.59 16.8765 142.454 17.2905 142.452 17.8332L142.445 21.2212L141.191 21.2183L141.205 15.1573L142.459 15.1602L142.457 15.8532C142.663 15.6043 142.924 15.4106 143.239 15.272C143.555 15.1334 143.892 15.0645 144.252 15.0653C144.736 15.0664 145.168 15.1701 145.549 15.3763C145.93 15.5825 146.223 15.8801 146.427 16.2693C146.611 15.903 146.898 15.614 147.287 15.4023C147.676 15.1831 148.094 15.0741 148.542 15.0751ZM158.183 18.0782C158.182 18.3056 158.167 18.5109 158.137 18.6941L153.506 18.6835C153.542 19.1676 153.721 19.5567 154.043 19.8507C154.365 20.1448 154.76 20.2924 155.229 20.2935C155.904 20.295 156.381 20.0138 156.661 19.4498L158.014 19.4529C157.83 20.0098 157.495 20.4673 157.01 20.8256C156.533 21.1765 155.938 21.3511 155.227 21.3495C154.648 21.3481 154.127 21.2186 153.666 20.9609C153.212 20.6958 152.853 20.3284 152.59 19.8584C152.335 19.3812 152.208 18.8309 152.209 18.2075C152.211 17.5842 152.337 17.0382 152.587 16.5694C152.845 16.0933 153.201 15.7275 153.657 15.4719C154.119 15.2162 154.647 15.0891 155.241 15.0905C155.813 15.0918 156.323 15.2176 156.77 15.468C157.216 15.7183 157.564 16.0711 157.812 16.5264C158.06 16.9743 158.184 17.4916 158.183 18.0782ZM156.874 17.6792C156.868 17.2172 156.704 16.8465 156.382 16.5671C156.06 16.2877 155.661 16.1474 155.184 16.1464C154.751 16.1454 154.381 16.2838 154.072 16.5618C153.763 16.8324 153.579 17.2023 153.519 17.6715L156.874 17.6792ZM156.345 13.564L153.911 14.7574L153.913 13.8334L156.347 12.497L156.345 13.564Z" fill="black"/>
<path d="M180.535 14.4335L180.538 13.2895L182.826 13.2947L182.808 21.3137L181.543 21.3108L181.558 14.4358L180.535 14.4335ZM194.904 15.1814C195.381 15.1825 195.806 15.2825 196.179 15.4813C196.56 15.6802 196.856 15.9742 197.068 16.3634C197.287 16.7526 197.396 17.2221 197.395 17.7721L197.387 21.3471L196.144 21.3443L196.152 17.9563C196.153 17.4136 196.018 16.999 195.747 16.7124C195.477 16.4184 195.107 16.2709 194.637 16.2698C194.168 16.2687 193.794 16.4145 193.514 16.7072C193.242 16.9926 193.106 17.4066 193.105 17.9493L193.097 21.3373L191.854 21.3344L191.862 17.9465C191.863 17.4038 191.728 16.9891 191.457 16.7025C191.187 16.4086 190.817 16.2611 190.347 16.26C189.878 16.2589 189.504 16.4047 189.224 16.6974C188.952 16.9828 188.816 17.3968 188.815 17.9395L188.807 21.3275L187.553 21.3246L187.567 15.2636L188.821 15.2665L188.819 15.9595C189.025 15.7106 189.286 15.5169 189.601 15.3783C189.917 15.2397 190.255 15.1708 190.614 15.1716C191.098 15.1727 191.53 15.2764 191.911 15.4826C192.292 15.6888 192.585 15.9864 192.789 16.3756C192.973 16.0093 193.26 15.7203 193.649 15.5085C194.038 15.2894 194.457 15.1804 194.904 15.1814ZM201.611 21.4558C201.039 21.4545 200.523 21.325 200.061 21.0673C199.6 20.8022 199.238 20.4347 198.975 19.9648C198.712 19.4875 198.581 18.9372 198.582 18.3139C198.584 17.6979 198.721 17.1518 198.993 16.6758C199.266 16.1998 199.637 15.8339 200.107 15.5783C200.577 15.3228 201.101 15.1956 201.681 15.1969C202.26 15.1983 202.784 15.3278 203.253 15.5856C203.721 15.8433 204.091 16.2108 204.361 16.6881C204.631 17.1654 204.766 17.712 204.764 18.328C204.763 18.944 204.622 19.49 204.343 19.9661C204.063 20.4421 203.681 20.8115 203.196 21.0744C202.719 21.33 202.191 21.4571 201.611 21.4558ZM201.614 20.3668C201.936 20.3675 202.237 20.2912 202.516 20.1379C202.803 19.9845 203.034 19.7541 203.211 19.4465C203.388 19.1389 203.476 18.7651 203.477 18.3251C203.478 17.8851 203.395 17.5146 203.227 17.2135C203.059 16.9051 202.836 16.6736 202.558 16.519C202.279 16.3643 201.979 16.2866 201.656 16.2859C201.333 16.2852 201.033 16.3615 200.754 16.5148C200.482 16.6682 200.265 16.8987 200.103 17.2063C199.941 17.5066 199.859 17.8768 199.858 18.3168C199.857 18.9694 200.021 19.4758 200.35 19.8359C200.686 20.1887 201.108 20.3657 201.614 20.3668ZM206.651 14.5043C206.424 14.5038 206.233 14.4264 206.079 14.272C205.926 14.1177 205.849 13.9268 205.85 13.6995C205.85 13.4722 205.928 13.2817 206.082 13.128C206.236 12.9744 206.427 12.8978 206.655 12.8983C206.875 12.8988 207.061 12.9763 207.215 13.1306C207.369 13.285 207.445 13.4758 207.445 13.7032C207.444 13.9305 207.367 14.121 207.212 14.2746C207.058 14.4283 206.871 14.5048 206.651 14.5043ZM207.265 15.3087L207.251 21.3697L205.997 21.3669L206.011 15.3059L207.265 15.3087ZM211.097 21.4775C210.621 21.4765 210.192 21.3911 209.811 21.2216C209.437 21.0447 209.141 20.8094 208.921 20.5156C208.702 20.2144 208.586 19.8805 208.572 19.5138L209.87 19.5167C209.891 19.7734 210.012 19.9901 210.231 20.1666C210.458 20.3357 210.74 20.4207 211.078 20.4215C211.43 20.4223 211.701 20.3569 211.892 20.2254C212.09 20.0865 212.19 19.9107 212.19 19.698C212.191 19.4707 212.081 19.3018 211.862 19.1913C211.649 19.0808 211.308 18.959 210.839 18.826C210.385 18.7002 210.015 18.5784 209.729 18.4604C209.443 18.3424 209.195 18.1622 208.982 17.9197C208.778 17.6772 208.676 17.358 208.677 16.962C208.677 16.6393 208.773 16.3462 208.965 16.0826C209.156 15.8118 209.428 15.5997 209.78 15.4465C210.14 15.2933 210.551 15.2173 211.013 15.2183C211.702 15.2199 212.255 15.3972 212.672 15.7501C213.097 16.0958 213.323 16.5693 213.351 17.1707L212.097 17.1678C212.076 16.8964 211.966 16.6799 211.769 16.5181C211.571 16.3563 211.304 16.275 210.966 16.2742C210.636 16.2735 210.383 16.3352 210.207 16.4595C210.03 16.5838 209.942 16.7486 209.942 16.9539C209.941 17.1152 210 17.251 210.117 17.3613C210.234 17.4716 210.377 17.5599 210.545 17.6263C210.714 17.6853 210.963 17.7629 211.293 17.859C211.732 17.9773 212.091 18.0992 212.37 18.2245C212.655 18.3424 212.901 18.519 213.106 18.7541C213.31 18.9893 213.416 19.3012 213.422 19.6899C213.422 20.0345 213.326 20.3423 213.134 20.6132C212.943 20.8841 212.671 21.0962 212.319 21.2493C211.974 21.4026 211.567 21.4786 211.097 21.4775Z" fill="#111521"/>
</svg>
