<svg width="247" height="53" viewBox="0 0 247 53" fill="none" xmlns="http://www.w3.org/2000/svg">
<path d="M0.46173 24.3166C0.279585 22.115 1.91669 20.1825 4.11831 20.0004L240.311 0.459624C242.513 0.277479 244.445 1.91459 244.628 4.1162L246.606 28.0345C246.788 30.2361 245.151 32.1685 242.95 32.3507L6.75673 51.8914C4.55511 52.0736 2.62269 50.4365 2.44054 48.2349L0.46173 24.3166Z" fill="white"/>
<path d="M8.28894 33.068L8.47396 35.3043L11.105 35.0867L11.1893 36.1062L8.5583 36.3239L8.75149 38.6589L11.7114 38.414L11.7957 39.4335L7.5861 39.7818L6.95486 32.1519L11.1645 31.8036L11.2488 32.8231L8.28894 33.068ZM15.452 34.0758L14.3338 34.1683L14.7492 39.1892L13.4885 39.2935L13.0731 34.2726L12.3605 34.3316L12.2762 33.3121L12.9888 33.2531L12.9534 32.8256C12.8959 32.1313 13.0369 31.6119 13.3764 31.2674C13.7225 30.915 14.2902 30.7061 15.0795 30.6408L15.1657 31.6823C14.7856 31.7137 14.5249 31.8089 14.3835 31.9677C14.2415 32.1193 14.1851 32.3705 14.2141 32.7213L14.2495 33.1488L15.3676 33.0563L15.452 34.0758ZM19.0919 33.7747L17.9737 33.8672L18.3891 38.888L17.1284 38.9923L16.713 33.9715L16.0004 34.0304L15.9161 33.0109L16.6287 32.952L16.5933 32.5244C16.5359 31.8301 16.6768 31.3108 17.0163 30.9663C17.3624 30.6139 17.9301 30.405 18.7194 30.3397L18.8056 31.3811C18.4255 31.4126 18.1648 31.5077 18.0234 31.6666C17.8814 31.8182 17.825 32.0693 17.854 32.4201L17.8894 32.8477L19.0075 32.7552L19.0919 33.7747ZM25.8888 35.0777C25.9076 35.3043 25.9099 35.5101 25.8957 35.6952L21.2805 36.0771C21.357 36.5564 21.5681 36.9289 21.9138 37.1947C22.2596 37.4604 22.6663 37.5739 23.134 37.5352C23.8064 37.4796 24.2582 37.1589 24.4893 36.5732L25.8377 36.4616C25.701 37.0322 25.4062 37.5165 24.9535 37.9145C24.5075 38.3046 23.93 38.529 23.2211 38.5876C22.6438 38.6354 22.1143 38.5504 21.6327 38.3327C21.1578 38.1071 20.7695 37.7713 20.4677 37.3253C20.1726 36.8715 19.9993 36.3339 19.9479 35.7127C19.8965 35.0915 19.9757 34.5367 20.1855 34.0484C20.402 33.5522 20.7262 33.1575 21.1582 32.8642C21.5975 32.5703 22.1131 32.3989 22.7051 32.3499C23.2751 32.3028 23.7933 32.385 24.2597 32.5966C24.7261 32.8082 25.1022 33.1303 25.3882 33.5628C25.6736 33.9881 25.8404 34.493 25.8888 35.0777ZM24.5516 34.791C24.5062 34.3312 24.3112 33.9757 23.9667 33.7246C23.6222 33.4735 23.2124 33.3676 22.7373 33.4069C22.3061 33.4425 21.9485 33.6119 21.6646 33.915C21.38 34.2108 21.2278 34.595 21.208 35.0676L24.5516 34.791ZM28.2033 32.8774C28.3606 32.5553 28.5822 32.2978 28.8679 32.105C29.1603 31.9042 29.5149 31.7865 29.9314 31.7521L30.0385 33.0457L29.7205 33.072C29.2309 33.1125 28.8684 33.2675 28.6332 33.5372C28.4053 33.8062 28.3167 34.2477 28.3675 34.8616L28.6305 38.0407L27.3808 38.1441L26.881 32.1038L28.1308 32.0004L28.2033 32.8774ZM30.9194 34.7829C30.8692 34.1763 30.949 33.6289 31.1588 33.1406C31.3759 32.6517 31.6894 32.2615 32.0995 31.9701C32.5162 31.6707 32.9877 31.4992 33.5139 31.4557C33.9889 31.4164 34.4097 31.4772 34.7762 31.6382C35.1494 31.7913 35.4535 31.9979 35.6884 32.2581L35.6159 31.3811L36.8766 31.2768L37.3763 37.3172L36.1156 37.4215L36.0412 36.5226C35.8529 36.8251 35.5839 37.0865 35.2342 37.3068C34.8845 37.527 34.4757 37.6565 34.008 37.6952C33.4891 37.7381 33.0032 37.6459 32.5502 37.4184C32.0967 37.1837 31.7223 36.8394 31.4272 36.3855C31.1388 35.9237 30.9696 35.3895 30.9194 34.7829ZM35.8653 34.3958C35.8308 33.9792 35.7132 33.6247 35.5124 33.3323C35.3189 33.0393 35.0767 32.8238 34.7856 32.686C34.4946 32.5482 34.1883 32.4926 33.8668 32.5192C33.5452 32.5458 33.2522 32.651 32.9878 32.8348C32.7228 33.0112 32.5153 33.2602 32.3652 33.5816C32.2219 33.8952 32.1675 34.2602 32.202 34.6768C32.2365 35.0934 32.3507 35.4519 32.5448 35.7522C32.7462 36.052 32.9927 36.2744 33.2844 36.4195C33.5827 36.5567 33.889 36.6123 34.2032 36.5863C34.5248 36.5597 34.8178 36.4545 35.0822 36.2708C35.3466 36.087 35.5502 35.8347 35.6929 35.5138C35.8423 35.1851 35.8998 34.8124 35.8653 34.3958ZM39.5964 28.9657L40.2675 37.078L39.0178 37.1814L38.3466 29.0691L39.5964 28.9657ZM43.8341 30.6019C44.3018 30.5632 44.7226 30.624 45.0964 30.7844C45.477 30.9369 45.781 31.1435 46.0086 31.4043L45.9361 30.5273L47.1968 30.423L47.7047 36.562C47.7506 37.1175 47.6745 37.6205 47.4763 38.071C47.2787 38.5289 46.9673 38.9005 46.5421 39.1858C46.1241 39.4706 45.6082 39.6384 44.9943 39.6892C44.1757 39.7569 43.48 39.6194 42.9072 39.2768C42.3349 38.9415 41.985 38.448 41.8575 37.7963L43.0963 37.6939C43.2173 38.0003 43.4392 38.2358 43.7618 38.4004C44.0924 38.5717 44.4733 38.6395 44.9045 38.6039C45.4088 38.5621 45.8017 38.3751 46.0832 38.0428C46.3721 37.7098 46.4924 37.251 46.444 36.6663L46.3605 35.6578C46.1722 35.9603 45.9035 36.2254 45.5544 36.453C45.212 36.6726 44.8106 36.8015 44.3501 36.8396C43.8239 36.8831 43.3307 36.7915 42.8704 36.5646C42.4169 36.3299 42.0425 35.9856 41.7474 35.5317C41.4591 35.0699 41.2898 34.5357 41.2396 33.9291C41.1894 33.3225 41.2692 32.7751 41.479 32.2868C41.6961 31.7979 42.0096 31.4077 42.4197 31.1162C42.8364 30.8169 43.3079 30.6454 43.8341 30.6019ZM46.1855 33.542C46.151 33.1254 46.0334 32.7709 45.8326 32.4785C45.6391 32.1854 45.3969 31.97 45.1059 31.8322C44.8148 31.6944 44.5085 31.6388 44.187 31.6654C43.8654 31.692 43.5724 31.7972 43.308 31.9809C43.043 32.1574 42.8355 32.4064 42.6855 32.7278C42.5422 33.0414 42.4877 33.4064 42.5222 33.823C42.5567 34.2396 42.6709 34.5981 42.865 34.8984C43.0664 35.1982 43.3129 35.4206 43.6046 35.5657C43.9029 35.7029 44.2092 35.7585 44.5235 35.7325C44.845 35.7059 45.138 35.6007 45.4024 35.417C45.6668 35.2332 45.8704 34.9809 46.0131 34.66C46.1625 34.3313 46.22 33.9586 46.1855 33.542ZM48.6693 33.3144C48.6191 32.7079 48.6989 32.1604 48.9087 31.6721C49.1258 31.1832 49.4393 30.793 49.8494 30.5016C50.2661 30.2022 50.7376 30.0307 51.2638 29.9872C51.7388 29.9479 52.1596 30.0087 52.5261 30.1697C52.8994 30.3228 53.2034 30.5295 53.4383 30.7896L53.3658 29.9126L54.6265 29.8083L55.1262 35.8487L53.8655 35.953L53.7911 35.0541C53.6028 35.3566 53.3338 35.618 52.9841 35.8383C52.6344 36.0585 52.2256 36.188 51.7579 36.2267C51.239 36.2696 50.7531 36.1774 50.3001 35.95C49.8466 35.7152 49.4722 35.3709 49.1771 34.917C48.8888 34.4552 48.7195 33.921 48.6693 33.3144ZM53.6152 32.9273C53.5807 32.5108 53.4631 32.1563 53.2623 31.8638C53.0688 31.5708 52.8266 31.3553 52.5355 31.2175C52.2445 31.0797 51.9382 31.0241 51.6167 31.0507C51.2951 31.0773 51.0021 31.1825 50.7377 31.3663C50.4727 31.5427 50.2652 31.7917 50.1152 32.1131C49.9719 32.4267 49.9174 32.7918 49.9519 33.2083C49.9864 33.6249 50.1006 33.9834 50.2947 34.2837C50.4961 34.5835 50.7426 34.8059 51.0343 34.951C51.3326 35.0882 51.6389 35.1438 51.9531 35.1178C52.2747 35.0912 52.5677 34.986 52.8321 34.8023C53.0965 34.6185 53.3001 34.3662 53.4428 34.0454C53.5922 33.7166 53.6497 33.3439 53.6152 32.9273ZM59.3074 29.3217C59.7824 29.2824 60.2145 29.346 60.6035 29.5125C60.9999 29.6784 61.3201 29.9462 61.564 30.3161C61.808 30.6859 61.9527 31.1448 61.998 31.693L62.2928 35.2558L61.054 35.3583L60.7747 31.9818C60.73 31.441 60.5606 31.0393 60.2666 30.7766C59.972 30.5066 59.5908 30.391 59.1231 30.4297C58.6554 30.4684 58.2947 30.6454 58.0412 30.9607C57.7944 31.2681 57.6933 31.6922 57.7381 32.233L58.0174 35.6095L56.7677 35.7129L56.268 29.6725L57.5177 29.5691L57.5748 30.2598C57.7589 29.9944 58.0023 29.7792 58.3051 29.6144C58.6152 29.4489 58.9493 29.3514 59.3074 29.3217ZM71.1503 27.5583L67.4778 27.8621L67.6583 30.0437C67.7949 29.8263 68.0072 29.6358 68.2954 29.4722C68.5908 29.3079 68.9103 29.2116 69.2538 29.1832C69.8677 29.1324 70.3755 29.2228 70.7774 29.4545C71.1865 29.6855 71.488 29.9954 71.6821 30.3841C71.8834 30.7721 72.0025 31.189 72.0394 31.6348C72.0842 32.1757 72.0181 32.6668 71.8412 33.1082C71.6711 33.5417 71.3877 33.8963 70.991 34.1719C70.6017 34.447 70.1074 34.6093 69.5081 34.6589C68.7115 34.7248 68.0557 34.5803 67.5407 34.2256C67.0257 33.8708 66.6938 33.3722 66.545 32.7296L67.7618 32.6289C67.8706 32.9658 68.0724 33.225 68.367 33.4067C68.661 33.581 69.0164 33.651 69.4329 33.6165C69.9518 33.5736 70.3262 33.3844 70.556 33.049C70.7931 32.7129 70.8902 32.2855 70.8472 31.7666C70.8037 31.2404 70.6389 30.8493 70.3528 30.5934C70.0661 30.3301 69.667 30.2196 69.1554 30.262C68.7973 30.2916 68.5016 30.408 68.2682 30.6113C68.0415 30.8067 67.8861 31.0623 67.8018 31.3784L66.6179 31.4763L66.2361 26.8611L71.0596 26.462L71.1503 27.5583ZM73.2324 30.2227C73.1278 28.9583 73.2582 27.9542 73.6234 27.2102C73.9953 26.4583 74.7038 26.0391 75.7489 25.9526C76.794 25.8662 77.5582 26.1635 78.0413 26.8447C78.5311 27.5179 78.8284 28.4867 78.933 29.7511C79.0388 31.03 78.906 32.0491 78.5347 32.8083C78.17 33.5596 77.4652 33.9785 76.4201 34.0649C75.375 34.1514 74.6072 33.8544 74.1168 33.1738C73.633 32.4854 73.3382 31.5016 73.2324 30.2227ZM77.7052 29.8526C77.6562 29.2607 77.5746 28.7634 77.4603 28.3607C77.3534 27.9575 77.1724 27.6377 76.9174 27.4012C76.6617 27.1575 76.3037 27.0547 75.8433 27.0928C75.3828 27.1308 75.0466 27.2911 74.8345 27.5736C74.6218 27.8487 74.4921 28.1942 74.4456 28.6102C74.4064 29.0255 74.4113 29.5291 74.4602 30.1211C74.511 30.735 74.5902 31.2472 74.6977 31.6577C74.8053 32.0683 74.9866 32.3918 75.2416 32.6282C75.504 32.864 75.8653 32.9629 76.3258 32.9248C76.7862 32.8867 77.1228 32.7301 77.3355 32.455C77.5555 32.1792 77.6848 31.83 77.7234 31.4074C77.762 30.9848 77.7559 30.4665 77.7052 29.8526ZM80.2553 29.6417C80.1507 28.3773 80.281 27.3731 80.6463 26.6292C81.0182 25.8773 81.7267 25.4581 82.7718 25.3716C83.8169 25.2852 84.581 25.5825 85.0642 26.2637C85.554 26.9369 85.8512 27.9057 85.9558 29.17C86.0617 30.449 85.9289 31.4681 85.5576 32.2273C85.1929 32.9786 84.4881 33.3975 83.443 33.4839C82.3979 33.5704 81.6301 33.2733 81.1397 32.5928C80.6559 31.9043 80.3611 30.9206 80.2553 29.6417ZM84.728 29.2716C84.6791 28.6796 84.5974 28.1823 84.4832 27.7797C84.3763 27.3765 84.1953 27.0567 83.9402 26.8202C83.6846 26.5765 83.3266 26.4736 82.8661 26.5117C82.4057 26.5498 82.0695 26.7101 81.8574 26.9925C81.6446 27.2677 81.515 27.6132 81.4685 28.0291C81.4293 28.4445 81.4341 28.9481 81.4831 29.5401C81.5339 30.154 81.6131 30.6662 81.7206 31.0767C81.8282 31.4873 82.0095 31.8107 82.2645 32.0472C82.5268 32.283 82.8882 32.3819 83.3486 32.3438C83.8091 32.3057 84.1456 32.1491 84.3583 31.874C84.5784 31.5982 84.7077 31.249 84.7463 30.8264C84.7849 30.4038 84.7788 29.8855 84.728 29.2716ZM94.586 26.4031C95.061 26.3638 95.4931 26.4274 95.8821 26.5938C96.2785 26.7597 96.5986 27.0276 96.8426 27.3974C97.0939 27.7666 97.2422 28.2253 97.2876 28.7734L97.5824 32.3362L96.3436 32.4387L96.0642 29.0622C96.0195 28.5214 95.8501 28.1197 95.5561 27.857C95.2616 27.5871 94.8804 27.4714 94.4127 27.5101C93.9449 27.5488 93.5843 27.7258 93.3308 28.0411C93.0839 28.3485 92.9829 28.7726 93.0276 29.3135L93.307 32.6899L92.0682 32.7924L91.7889 29.4159C91.7441 28.8751 91.5747 28.4734 91.2808 28.2107C90.9862 27.9408 90.605 27.8251 90.1373 27.8638C89.6695 27.9025 89.3089 28.0795 89.0554 28.3948C88.8085 28.7022 88.7075 29.1263 88.7522 29.6672L89.0316 33.0436L87.7818 33.147L87.2821 27.1067L88.5318 27.0033L88.589 27.6939C88.7731 27.4285 89.0165 27.2134 89.3192 27.0485C89.622 26.8836 89.9525 26.7864 90.3106 26.7568C90.7929 26.7169 91.2326 26.7835 91.6295 26.9567C92.0265 27.1299 92.3433 27.4017 92.58 27.7721C92.7325 27.3916 92.9936 27.0793 93.3634 26.8353C93.7326 26.584 94.1402 26.4399 94.586 26.4031ZM101.098 25.8643C101.566 25.8256 101.987 25.8864 102.361 26.0468C102.741 26.1993 103.045 26.4059 103.273 26.6667L103.2 25.7897L104.461 25.6854L104.969 31.8244C105.015 32.3799 104.939 32.8829 104.741 33.3334C104.543 33.7912 104.232 34.1629 103.806 34.4482C103.388 34.733 102.873 34.9008 102.259 34.9516C101.44 35.0193 100.744 34.8818 100.172 34.5392C99.5992 34.2039 99.2494 33.7104 99.1219 33.0587L100.361 32.9562C100.482 33.2626 100.703 33.4982 101.026 33.6628C101.357 33.8341 101.738 33.9019 102.169 33.8663C102.673 33.8245 103.066 33.6375 103.348 33.3052C103.636 32.9722 103.757 32.5134 103.708 31.9287L103.625 30.9202C103.437 31.2227 103.168 31.4878 102.819 31.7154C102.476 31.935 102.075 32.0639 101.614 32.102C101.088 32.1455 100.595 32.0539 100.135 31.827C99.6812 31.5923 99.3069 31.248 99.0118 30.7941C98.7234 30.3323 98.5541 29.7981 98.5039 29.1915C98.4537 28.5849 98.5335 28.0375 98.7433 27.5492C98.9604 27.0603 99.274 26.6701 99.684 26.3786C100.101 26.0793 100.572 25.9078 101.098 25.8643ZM103.45 28.8044C103.415 28.3878 103.298 28.0333 103.097 27.7409C102.903 27.4478 102.661 27.2324 102.37 27.0946C102.079 26.9568 101.773 26.9012 101.451 26.9278C101.13 26.9544 100.837 27.0596 100.572 27.2433C100.307 27.4198 100.1 27.6688 99.9498 27.9902C99.8065 28.3038 99.7521 28.6688 99.7865 29.0854C99.821 29.502 99.9353 29.8604 100.129 30.1608C100.331 30.4605 100.577 30.683 100.869 30.8281C101.167 30.9653 101.474 31.0209 101.788 30.9949C102.109 30.9683 102.402 30.8631 102.667 30.6794C102.931 30.4956 103.135 30.2433 103.277 29.9224C103.427 29.5937 103.484 29.221 103.45 28.8044ZM110.153 24.6406L110.338 26.8769L112.969 26.6593L113.053 27.6788L110.422 27.8964L110.615 30.2315L113.575 29.9866L113.66 31.0061L109.45 31.3544L108.819 23.7244L113.028 23.3762L113.113 24.3957L110.153 24.6406ZM117.316 25.6484L116.198 25.7409L116.613 30.7618L115.352 30.8661L114.937 25.8452L114.224 25.9042L114.14 24.8846L114.853 24.8257L114.817 24.3982C114.76 23.7039 114.901 23.1845 115.24 22.84C115.586 22.4876 116.154 22.2787 116.943 22.2134L117.03 23.2549C116.65 23.2863 116.389 23.3814 116.247 23.5403C116.105 23.6919 116.049 23.943 116.078 24.2939L116.113 24.7214L117.232 24.6289L117.316 25.6484ZM120.956 25.3473L119.838 25.4398L120.253 30.4606L118.992 30.5649L118.577 25.5441L117.864 25.603L117.78 24.5835L118.493 24.5246L118.457 24.097C118.4 23.4027 118.541 22.8833 118.88 22.5388C119.226 22.1864 119.794 21.9776 120.583 21.9123L120.669 22.9537C120.289 22.9852 120.029 23.0803 119.887 23.2392C119.745 23.3907 119.689 23.6419 119.718 23.9927L119.753 24.4203L120.871 24.3277L120.956 25.3473ZM127.753 26.6503C127.771 26.8768 127.774 27.0827 127.76 27.2678L123.144 27.6496C123.221 28.129 123.432 28.5015 123.778 28.7672C124.123 29.033 124.53 29.1465 124.998 29.1078C125.67 29.0522 126.122 28.7315 126.353 28.1458L127.702 28.0342C127.565 28.6048 127.27 29.089 126.817 29.4871C126.371 29.8772 125.794 30.1015 125.085 30.1602C124.508 30.208 123.978 30.123 123.497 29.9053C123.022 29.6797 122.633 29.3439 122.332 28.8979C122.036 28.444 121.863 27.9065 121.812 27.2853C121.76 26.6641 121.84 26.1093 122.049 25.621C122.266 25.1248 122.59 24.7301 123.022 24.4368C123.461 24.1429 123.977 23.9715 124.569 23.9225C125.139 23.8753 125.657 23.9576 126.124 24.1692C126.59 24.3808 126.966 24.7028 127.252 25.1354C127.537 25.5607 127.704 26.0656 127.753 26.6503ZM126.416 26.3636C126.37 25.9037 126.175 25.5483 125.831 25.2972C125.486 25.046 125.076 24.9401 124.601 24.9794C124.17 25.0151 123.812 25.1845 123.528 25.4876C123.244 25.7834 123.092 26.1676 123.072 26.6402L126.416 26.3636ZM130.067 24.45C130.225 24.1279 130.446 23.8704 130.732 23.6775C131.024 23.4767 131.379 23.3591 131.795 23.3246L131.902 24.6182L131.584 24.6445C131.095 24.685 130.732 24.8401 130.497 25.1098C130.269 25.3788 130.181 25.8203 130.231 26.4342L130.494 29.6133L129.245 29.7167L128.745 23.6764L129.995 23.573L130.067 24.45ZM135.694 28.0573L136.997 22.9936L138.324 22.8839L136.521 29.1147L135.031 29.238L132.24 23.3872L133.577 23.2766L135.694 28.0573ZM145.042 25.2199C145.061 25.4464 145.063 25.6523 145.049 25.8374L140.434 26.2192C140.51 26.6986 140.722 27.0711 141.067 27.3368C141.413 27.6026 141.82 27.7161 142.288 27.6774C142.96 27.6218 143.412 27.3011 143.643 26.7154L144.991 26.6038C144.854 27.1744 144.56 27.6586 144.107 28.0567C143.661 28.4468 143.083 28.6711 142.375 28.7298C141.797 28.7776 141.268 28.6926 140.786 28.4749C140.311 28.2493 139.923 27.9135 139.621 27.4675C139.326 27.0136 139.153 26.4761 139.101 25.8549C139.05 25.2337 139.129 24.6789 139.339 24.1906C139.555 23.6944 139.88 23.2997 140.312 23.0064C140.751 22.7125 141.267 22.5411 141.859 22.4921C142.429 22.4449 142.947 22.5272 143.413 22.7388C143.88 22.9504 144.256 23.2724 144.542 23.705C144.827 24.1303 144.994 24.6352 145.042 25.2199ZM143.705 24.9332C143.66 24.4733 143.465 24.1179 143.12 23.8668C142.776 23.6156 142.366 23.5097 141.891 23.549C141.46 23.5847 141.102 23.7541 140.818 24.0572C140.533 24.353 140.381 24.7372 140.361 25.2098L143.705 24.9332ZM148.735 28.2036C148.26 28.2429 147.825 28.1942 147.431 28.0576C147.044 27.913 146.729 27.7036 146.485 27.4294C146.241 27.1479 146.097 26.8251 146.052 26.4608L147.346 26.3538C147.389 26.6078 147.527 26.8134 147.761 26.9707C148.001 27.12 148.29 27.1808 148.626 27.153C148.977 27.124 149.242 27.0358 149.421 26.8886C149.607 26.7334 149.691 26.5498 149.673 26.3379C149.655 26.1113 149.531 25.9523 149.303 25.8608C149.082 25.7687 148.732 25.6762 148.253 25.5834C147.79 25.4966 147.411 25.4066 147.116 25.3132C146.821 25.2199 146.558 25.0614 146.326 24.8377C146.102 24.6135 145.973 24.304 145.94 23.9094C145.914 23.5878 145.985 23.2876 146.153 23.0088C146.32 22.7227 146.573 22.4883 146.911 22.3058C147.257 22.1227 147.66 22.0121 148.12 21.9741C148.807 21.9172 149.373 22.047 149.819 22.3633C150.271 22.6717 150.537 23.1244 150.616 23.7212L149.366 23.8246C149.322 23.556 149.194 23.3495 148.984 23.2051C148.773 23.0606 148.5 23.0023 148.163 23.0301C147.835 23.0573 147.588 23.1403 147.422 23.279C147.257 23.4178 147.183 23.5895 147.2 23.7941C147.213 23.9549 147.283 24.0853 147.409 24.1852C147.535 24.2852 147.685 24.3611 147.858 24.4129C148.031 24.4575 148.286 24.5137 148.623 24.5815C149.071 24.6621 149.439 24.7531 149.727 24.8544C150.022 24.9477 150.281 25.1029 150.505 25.3198C150.729 25.5367 150.861 25.8386 150.9 26.2253C150.929 26.5688 150.859 26.8836 150.691 27.1698C150.524 27.4559 150.271 27.6902 149.933 27.8727C149.602 28.0546 149.203 28.1649 148.735 28.2036ZM151.723 24.8106C151.672 24.1894 151.751 23.6347 151.961 23.1464C152.177 22.6502 152.498 22.2557 152.923 21.9631C153.347 21.6704 153.848 21.5002 154.426 21.4524C155.156 21.3919 155.774 21.5174 156.278 21.8289C156.789 22.1325 157.155 22.5989 157.376 23.2282L156.028 23.3397C155.893 23.0492 155.699 22.8298 155.443 22.6817C155.188 22.5335 154.878 22.4746 154.513 22.5048C154.001 22.5471 153.607 22.7637 153.33 23.1545C153.06 23.5374 152.952 24.0541 153.006 24.7045C153.06 25.355 153.252 25.8505 153.581 26.1911C153.919 26.5312 154.343 26.68 154.855 26.6377C155.578 26.5778 156.031 26.2203 156.212 25.5651L157.56 25.4536C157.436 26.082 157.147 26.5989 156.695 27.0042C156.242 27.4022 155.658 27.6308 154.942 27.6901C154.364 27.7378 153.842 27.6523 153.375 27.4334C152.908 27.2071 152.527 26.8708 152.232 26.4242C151.944 25.9697 151.775 25.4318 151.723 24.8106ZM164.237 23.6318C164.256 23.8584 164.258 24.0642 164.244 24.2494L159.629 24.6312C159.706 25.1105 159.917 25.483 160.262 25.7488C160.608 26.0145 161.015 26.128 161.483 26.0893C162.155 26.0337 162.607 25.713 162.838 25.1273L164.186 25.0157C164.05 25.5863 163.755 26.0706 163.302 26.4686C162.856 26.8587 162.279 27.0831 161.57 27.1417C160.992 27.1895 160.463 27.1045 159.981 26.8868C159.506 26.6612 159.118 26.3254 158.816 25.8795C158.521 25.4256 158.348 24.888 158.297 24.2668C158.245 23.6456 158.324 23.0909 158.534 22.6026C158.751 22.1064 159.075 21.7116 159.507 21.4183C159.946 21.1244 160.462 20.953 161.054 20.904C161.624 20.8569 162.142 20.9391 162.608 21.1507C163.075 21.3623 163.451 21.6844 163.737 22.1169C164.022 22.5422 164.189 23.0472 164.237 23.6318ZM162.9 23.3451C162.855 22.8853 162.66 22.5298 162.315 22.2787C161.971 22.0276 161.561 21.9217 161.086 21.961C160.655 21.9967 160.297 22.166 160.013 22.4692C159.729 22.765 159.576 23.1492 159.557 23.6217L162.9 23.3451ZM168.269 20.3071C168.744 20.2678 169.176 20.3314 169.565 20.4979C169.962 20.6638 170.282 20.9316 170.526 21.3014C170.77 21.6712 170.914 22.1302 170.96 22.6783L171.255 26.2411L170.016 26.3436L169.736 22.9672C169.692 22.4263 169.522 22.0246 169.228 21.762C168.934 21.492 168.553 21.3764 168.085 21.4151C167.617 21.4538 167.256 21.6308 167.003 21.9461C166.756 22.2535 166.655 22.6776 166.7 23.2184L166.979 26.5949L165.729 26.6983L165.23 20.6579L166.479 20.5545L166.537 21.2451C166.721 20.9797 166.964 20.7646 167.267 20.5997C167.577 20.4343 167.911 20.3367 168.269 20.3071ZM173.891 20.9678L174.168 24.3114C174.187 24.5379 174.251 24.6981 174.362 24.792C174.48 24.8779 174.666 24.9103 174.922 24.8891L175.689 24.8257L175.776 25.8671L174.789 25.9487C174.226 25.9953 173.784 25.8994 173.463 25.6611C173.141 25.4228 172.956 25.0076 172.907 24.4157L172.631 21.0721L171.918 21.131L171.834 20.1115L172.546 20.0526L172.422 18.5507L173.683 18.4464L173.807 19.9483L175.276 19.8267L175.36 20.8463L173.891 20.9678Z" fill="black"/>
<path d="M202.201 19.1555L202.288 20.2079L197.783 20.5806L197.695 19.5282L202.201 19.1555ZM208.764 16.1732L205.092 16.477L205.272 18.6586C205.409 18.4412 205.621 18.2507 205.909 18.0871C206.205 17.9228 206.524 17.8265 206.868 17.7981C207.482 17.7473 207.989 17.8377 208.391 18.0694C208.8 18.3004 209.102 18.6103 209.296 18.999C209.497 19.387 209.616 19.8039 209.653 20.2498C209.698 20.7906 209.632 21.2817 209.455 21.7231C209.285 22.1566 209.001 22.5112 208.605 22.7868C208.216 23.0619 207.721 23.2242 207.122 23.2738C206.325 23.3397 205.67 23.1952 205.155 22.8405C204.64 22.4858 204.308 21.9871 204.159 21.3445L205.376 21.2438C205.484 21.5807 205.686 21.8399 205.981 22.0216C206.275 22.1959 206.63 22.2659 207.047 22.2314C207.566 22.1885 207.94 21.9993 208.17 21.6639C208.407 21.3279 208.504 20.9004 208.461 20.3815C208.418 19.8553 208.253 19.4642 207.967 19.2083C207.68 18.945 207.281 18.8345 206.769 18.8769C206.411 18.9065 206.115 19.0229 205.882 19.2262C205.655 19.4216 205.5 19.6773 205.416 19.9933L204.232 20.0912L203.85 15.476L208.673 15.0769L208.764 16.1732ZM214.267 15.7951C214.041 15.8139 213.845 15.7529 213.678 15.6121C213.512 15.4713 213.42 15.2876 213.401 15.0611C213.382 14.8345 213.443 14.6382 213.584 14.472C213.725 14.3058 213.909 14.2134 214.135 14.1946C214.354 14.1765 214.547 14.2378 214.713 14.3786C214.879 14.5193 214.972 14.703 214.991 14.9296C215.009 15.1561 214.948 15.3525 214.808 15.5187C214.667 15.6848 214.487 15.777 214.267 15.7951ZM215.545 23.7689C215.594 24.3609 215.48 24.8008 215.202 25.0887C214.932 25.3833 214.516 25.5539 213.953 25.6005L213.306 25.654L213.219 24.6016L213.647 24.5662C213.902 24.545 214.077 24.4791 214.171 24.3683C214.273 24.2642 214.314 24.0989 214.296 23.8723L213.698 16.648L214.948 16.5446L215.545 23.7689ZM219.716 22.3311C219.146 22.3783 218.62 22.293 218.139 22.0753C217.657 21.8503 217.265 21.5148 216.963 21.0689C216.66 20.6156 216.484 20.0783 216.432 19.4571C216.381 18.8432 216.472 18.2876 216.703 17.7902C216.934 17.2927 217.273 16.8968 217.719 16.6023C218.166 16.3078 218.678 16.1367 219.255 16.0889C219.832 16.0411 220.366 16.1258 220.854 16.3429C221.343 16.56 221.743 16.8949 222.052 17.3476C222.362 17.8002 222.542 18.3335 222.593 18.9474C222.644 19.5613 222.55 20.1173 222.312 20.6153C222.073 21.1133 221.724 21.5138 221.263 21.8168C220.809 22.1119 220.294 22.2834 219.716 22.3311ZM219.627 21.2458C219.948 21.2192 220.241 21.1177 220.506 20.9413C220.779 20.7642 220.99 20.5149 221.14 20.1935C221.29 19.872 221.347 19.492 221.311 19.0535C221.274 18.615 221.16 18.2529 220.967 17.9672C220.773 17.6741 220.531 17.4624 220.241 17.3319C219.951 17.2014 219.645 17.1494 219.323 17.176C219.001 17.2026 218.708 17.3041 218.443 17.4806C218.185 17.6564 217.989 17.9045 217.853 18.2248C217.717 18.5377 217.668 18.9134 217.704 19.3519C217.758 20.0024 217.964 20.493 218.322 20.8239C218.688 21.1469 219.122 21.2876 219.627 21.2458ZM229.049 15.3779L229.549 21.4183L228.299 21.5217L228.241 20.8091C228.064 21.0739 227.821 21.2927 227.511 21.4655C227.208 21.6304 226.878 21.7276 226.52 21.7572C226.045 21.7965 225.609 21.7332 225.213 21.5674C224.824 21.4009 224.503 21.133 224.252 20.7638C224.008 20.394 223.864 19.935 223.818 19.3869L223.524 15.835L224.763 15.7326L225.042 19.0981C225.086 19.6389 225.256 20.0443 225.551 20.3142C225.845 20.5769 226.225 20.6889 226.693 20.6502C227.161 20.6115 227.518 20.4384 227.765 20.131C228.019 19.8157 228.123 19.3877 228.078 18.8468L227.8 15.4813L229.049 15.3779ZM232.021 16.0151C232.178 15.6931 232.4 15.4356 232.685 15.2427C232.978 15.0419 233.332 14.9243 233.749 14.8898L233.856 16.1834L233.538 16.2097C233.048 16.2502 232.686 16.4053 232.451 16.6749C232.223 16.944 232.134 17.3854 232.185 17.9994L232.448 21.1785L231.198 21.2819L230.698 15.2415L231.948 15.1381L232.021 16.0151ZM237.606 20.8511C237.131 20.8904 236.697 20.8417 236.303 20.7051C235.915 20.5605 235.6 20.3511 235.357 20.0769C235.113 19.7954 234.968 19.4726 234.923 19.1083L236.217 19.0013C236.26 19.2553 236.398 19.4609 236.632 19.6182C236.873 19.7675 237.161 19.8283 237.497 19.8005C237.848 19.7715 238.113 19.6833 238.292 19.536C238.478 19.3809 238.562 19.1973 238.544 18.9854C238.526 18.7588 238.402 18.5998 238.174 18.5083C237.953 18.4162 237.603 18.3237 237.124 18.2309C236.661 18.1441 236.282 18.0541 235.987 17.9607C235.693 17.8674 235.429 17.7089 235.197 17.4852C234.973 17.261 234.844 16.9515 234.812 16.5569C234.785 16.2353 234.856 15.9351 235.024 15.6563C235.192 15.3702 235.445 15.1358 235.783 14.9533C236.128 14.7702 236.531 14.6596 236.991 14.6215C237.678 14.5647 238.245 14.6945 238.69 15.0108C239.143 15.3192 239.408 15.7719 239.487 16.3687L238.237 16.4721C238.193 16.2035 238.065 15.997 237.855 15.8525C237.644 15.7081 237.371 15.6498 237.035 15.6776C236.706 15.7048 236.459 15.7878 236.294 15.9265C236.128 16.0653 236.054 16.237 236.071 16.4416C236.085 16.6024 236.154 16.7328 236.28 16.8327C236.406 16.9327 236.556 17.0086 236.73 17.0604C236.902 17.105 237.157 17.1612 237.494 17.229C237.942 17.3096 238.31 17.4006 238.598 17.5019C238.893 17.5952 239.152 17.7504 239.376 17.9673C239.6 18.1842 239.732 18.4861 239.771 18.8728C239.8 19.2163 239.73 19.5311 239.563 19.8172C239.395 20.1034 239.142 20.3377 238.804 20.5202C238.473 20.7021 238.074 20.8124 237.606 20.8511Z" fill="#FF2D55"/>
</svg>
