<svg width="41" height="41" viewBox="0 0 41 41" fill="none" xmlns="http://www.w3.org/2000/svg">
<path d="M15.0504 3.41663L8.86627 9.61788" stroke="#292D32" stroke-width="2" stroke-miterlimit="10" stroke-linecap="round" stroke-linejoin="round"/>
<path d="M25.9496 3.41663L32.1338 9.61788" stroke="#292D32" stroke-width="2" stroke-miterlimit="10" stroke-linecap="round" stroke-linejoin="round"/>
<path d="M3.41669 13.4104C3.41669 10.25 5.10794 9.99377 7.20919 9.99377H33.7909C35.8921 9.99377 37.5834 10.25 37.5834 13.4104C37.5834 17.0834 35.8921 16.8271 33.7909 16.8271H7.20919C5.10794 16.8271 3.41669 17.0834 3.41669 13.4104Z" stroke="#292D32" stroke-width="2"/>
<path d="M16.6733 23.9166V29.9812" stroke="#292D32" stroke-width="2" stroke-linecap="round"/>
<path d="M24.5317 23.9166V29.9812" stroke="#292D32" stroke-width="2" stroke-linecap="round"/>
<path d="M5.97919 17.0834L8.38794 31.8434C8.9346 35.1575 10.25 37.5834 15.1359 37.5834H25.4371C30.75 37.5834 31.5359 35.26 32.1509 32.0484L35.0209 17.0834" stroke="#292D32" stroke-width="2" stroke-linecap="round"/>
</svg>
