<svg width="40" height="40" viewBox="0 0 40 40" fill="none" xmlns="http://www.w3.org/2000/svg">
<path d="M15 36.6667H25C33.3333 36.6667 36.6667 33.3334 36.6667 25V15C36.6667 6.66671 33.3333 3.33337 25 3.33337H15C6.66667 3.33337 3.33333 6.66671 3.33333 15V25C3.33333 33.3334 6.66667 36.6667 15 36.6667Z" stroke="#292D32" stroke-width="2" stroke-linecap="round" stroke-linejoin="round"/>
<path d="M25.8333 16.25C27.214 16.25 28.3333 15.1307 28.3333 13.75C28.3333 12.3693 27.214 11.25 25.8333 11.25C24.4526 11.25 23.3333 12.3693 23.3333 13.75C23.3333 15.1307 24.4526 16.25 25.8333 16.25Z" stroke="#292D32" stroke-width="2" stroke-miterlimit="10" stroke-linecap="round" stroke-linejoin="round"/>
<path d="M14.1667 16.25C15.5474 16.25 16.6667 15.1307 16.6667 13.75C16.6667 12.3693 15.5474 11.25 14.1667 11.25C12.786 11.25 11.6667 12.3693 11.6667 13.75C11.6667 15.1307 12.786 16.25 14.1667 16.25Z" stroke="#292D32" stroke-width="2" stroke-miterlimit="10" stroke-linecap="round" stroke-linejoin="round"/>
<path d="M14 22.1666H26C26.8333 22.1666 27.5 22.8333 27.5 23.6666C27.5 27.8166 24.15 31.1666 20 31.1666C15.85 31.1666 12.5 27.8166 12.5 23.6666C12.5 22.8333 13.1667 22.1666 14 22.1666Z" stroke="#292D32" stroke-width="2" stroke-miterlimit="10" stroke-linecap="round" stroke-linejoin="round"/>
</svg>
