<svg width="22" height="22" viewBox="0 0 22 22" fill="none" xmlns="http://www.w3.org/2000/svg">
<path fill-rule="evenodd" clip-rule="evenodd" d="M0 1.76142C0.000507335 1.29442 0.186248 0.846689 0.516467 0.51647C0.846687 0.18625 1.29442 0.000509683 1.76142 2.34822e-06H19.32C19.5515 -0.000375764 19.7808 0.0449126 19.9948 0.133275C20.2088 0.221637 20.4032 0.351337 20.567 0.51495C20.7308 0.678562 20.8607 0.872875 20.9493 1.08676C21.0379 1.30065 21.0835 1.52991 21.0833 1.76142V19.32C21.0833 19.7875 20.8977 20.2359 20.5672 20.5665C20.2367 20.8972 19.7885 21.0831 19.321 21.0833H1.76142C1.29425 21.0828 0.846376 20.897 0.516129 20.5665C0.185882 20.2361 0.000253619 19.7881 0 19.321V1.76142ZM8.34517 8.0385H11.2V9.47217C11.6121 8.648 12.6663 7.90625 14.2504 7.90625C17.2874 7.90625 18.0071 9.54788 18.0071 12.5599V18.1393H14.9337V13.2461C14.9337 11.5307 14.5216 10.5628 13.4751 10.5628C12.0233 10.5628 11.4195 11.6064 11.4195 13.2461V18.1393H8.34517V8.0385ZM3.07433 18.008H6.14867V7.90625H3.07433V18.008ZM6.58854 4.6115C6.59434 4.87473 6.5475 5.13647 6.45077 5.38135C6.35404 5.62623 6.20938 5.84932 6.02526 6.03753C5.84115 6.22575 5.62129 6.37529 5.3786 6.47738C5.13591 6.57948 4.87527 6.63207 4.61198 6.63207C4.34869 6.63207 4.08805 6.57948 3.84536 6.47738C3.60266 6.37529 3.38281 6.22575 3.19869 6.03753C3.01458 5.84932 2.86991 5.62623 2.77319 5.38135C2.67646 5.13647 2.62962 4.87473 2.63542 4.6115C2.64679 4.09482 2.86004 3.60314 3.22947 3.24174C3.59891 2.88035 4.09517 2.67799 4.61198 2.67799C5.12879 2.67799 5.62505 2.88035 5.99449 3.24174C6.36392 3.60314 6.57716 4.09482 6.58854 4.6115Z" fill="#67708A"/>
</svg>
