<svg width="29" height="21" viewBox="0 0 29 21" fill="none" xmlns="http://www.w3.org/2000/svg">
<path fill-rule="evenodd" clip-rule="evenodd" d="M14.3333 0C12.7453 0 10.8933 0.0373333 9.088 0.088L9.01467 0.0906665C7.17733 0.142666 5.69467 0.184 4.52667 0.377333C3.30933 0.578667 2.29867 0.964 1.49067 1.79467C0.68 2.628 0.326667 3.65867 0.16 4.892C9.93411e-09 6.07867 0 7.58267 0 9.452V11.484C0 13.3507 9.93411e-09 14.8547 0.16 16.0427C0.325333 17.276 0.68 18.3067 1.49067 19.14C2.29867 19.972 3.30933 20.356 4.52667 20.5573C5.69467 20.7507 7.17733 20.792 9.01467 20.844L9.088 20.8467C10.8947 20.8973 12.7453 20.9347 14.3333 20.9347C15.9213 20.9347 17.7733 20.8973 19.5787 20.8467L19.652 20.844C21.4893 20.792 22.972 20.7507 24.14 20.5573C25.3573 20.356 26.368 19.9707 27.176 19.14C27.9867 18.3067 28.3413 17.276 28.5067 16.0427C28.6667 14.856 28.6667 13.352 28.6667 11.4827V9.45067C28.6667 7.58267 28.6667 6.07867 28.5067 4.892C28.3413 3.65867 27.9867 2.628 27.176 1.79467C26.368 0.962666 25.3573 0.578667 24.14 0.377333C22.972 0.184 21.4893 0.142666 19.6507 0.0906665L19.5787 0.088C17.8307 0.034945 16.0821 0.005609 14.3333 0ZM12.8293 14.0013C12.6773 14.0882 12.5051 14.1336 12.33 14.133C12.1548 14.1324 11.9829 14.0858 11.8315 13.998C11.68 13.9101 11.5543 13.784 11.4669 13.6322C11.3794 13.4805 11.3334 13.3085 11.3333 13.1333V7.8C11.3334 7.62488 11.3794 7.45285 11.4669 7.30111C11.5543 7.14938 11.68 7.02326 11.8315 6.93537C11.9829 6.84749 12.1548 6.80092 12.33 6.80033C12.5051 6.79974 12.6773 6.84514 12.8293 6.932L17.496 9.59867C17.6489 9.68617 17.7761 9.81253 17.8645 9.96495C17.9529 10.1174 17.9994 10.2905 17.9994 10.4667C17.9994 10.6429 17.9529 10.816 17.8645 10.9684C17.7761 11.1208 17.6489 11.2472 17.496 11.3347L12.8293 14.0013Z" fill="#67708A"/>
</svg>
